<?xml version="1.0" encoding="UTF-8" standalone="no"?>
<svg width="78px" height="73px" viewBox="0 0 78 73" version="1.1" xmlns="http://www.w3.org/2000/svg" xmlns:xlink="http://www.w3.org/1999/xlink">
    <!-- Generator: Sketch 40.2 (33826) - http://www.bohemiancoding.com/sketch -->
    <title>cancel</title>
    <desc>Created with Sketch.</desc>
    <defs></defs>
    <g id="Page-1" stroke="none" stroke-width="1" fill="none" fill-rule="evenodd">
        <g id="LandingPage_Desktop" transform="translate(-1112.000000, -798.000000)" fill="#FFFFFF">
            <g id="CONTENT">
                <g transform="translate(98.000000, 401.000000)" id="features">
                    <g transform="translate(0.000000, 396.000000)">
                        <path d="M1065.7886,26.577534 C1066.56089,26.5744934 1067.97222,26.2900257 1067.99544,26.1045473 C1068.17783,24.6159906 1068.09707,23.1196634 1068.09707,21.6135387 L1032.0884,21.6135387 L1032.0884,26.5940885 C1035.43634,26.5940885 1038.6019,26.5934128 1041.76712,26.5940885 C1049.77439,26.5954399 1057.782,26.6106431 1065.7886,26.577534 M1076.27966,59.7599151 C1069.47609,59.7599151 1063.94116,54.2026594 1063.94116,47.3720559 C1063.94116,40.5414524 1069.47609,34.9845345 1076.27966,34.9845345 C1083.08323,34.9845345 1088.6185,40.5414524 1088.6185,47.3720559 C1088.6185,54.2026594 1083.08323,59.7599151 1076.27966,59.7599151 M1091.98361,47.3720559 C1091.98361,39.8008904 1086.66707,33.4790855 1079.57848,31.9570819 C1079.57848,31.9570819 1077.89592,31.6195721 1077.89626,31.6195721 C1077.89558,23.3433186 1077.89558,15.4049127 1077.93832,7.12899707 C1077.95313,4.27080608 1075.03693,1.42004774 1072.14192,1.43423735 C1056.28789,1.51126661 1042.11507,1.53221316 1026.26171,1.42072344 C1022.8044,1.39673626 1019.99454,4.0332992 1020.00194,7.77090757 C1020.03021,22.9284417 1020.01338,40.788419 1020.01675,55.9459531 C1020.01675,56.3885335 1020.05814,56.8307761 1020.08001,57.265586 L1024.8699,57.265586 C1024.8699,56.6648929 1024.8699,56.1273773 1024.87024,55.5901996 C1024.87428,42.5438753 1024.92206,26.79477 1024.85039,13.7487836 C1024.8339,10.6905868 1026.77052,6.7178365 1030.02087,6.78439248 C1035.44341,6.89520651 1042.88905,6.80196056 1048.3136,6.80263625 C1054.87388,6.80331195 1061.4355,6.88034121 1067.99443,6.78473033 C1070.65488,6.74587785 1072.90109,9.10202725 1072.81999,11.6061539 C1072.66722,16.3299395 1072.78096,22.7514095 1072.7786,27.4802629 C1072.77827,28.9884147 1072.77726,30.4965665 1072.77692,32.0047184 C1069.01406,32.865892 1065.76673,35.0811589 1063.56999,38.1163821 C1063.571,38.1150307 1063.57167,38.1140172 1063.57234,38.1130036 L1032.02008,38.1130036 L1032.02008,42.7695576 L1061.25782,42.7695576 C1060.81565,44.2256809 1060.57605,45.7706581 1060.57605,47.3720559 C1060.57605,54.788825 1065.67823,61.0058972 1072.54978,62.687027 C1072.04535,64.8465491 1070.61383,66.4560552 1068.56313,67.1162095 C1065.77884,68.0125193 1062.39489,67.5331135 1060.93275,65.0272976 C1059.84145,63.1576487 1059.06781,60.5781821 1058.02799,60.5802091 C1043.35107,60.6119668 1030.02054,60.6018314 1015.34362,60.6018314 L1013.97705,60.6018314 C1014.30851,66.117194 1021.37288,73.9370154 1026.45622,73.915731 C1036.12047,73.8751892 1042.75646,73.9282313 1052.42004,73.8947844 C1057.53702,73.8768785 1061.64447,73.7532263 1066.76145,73.6890352 C1068.69841,73.6647102 1070.47249,73.0842879 1072.06486,72.0254735 C1075.39901,69.809193 1077.6109,66.4283517 1077.80439,62.8083143 L1079.48627,62.8083143 C1086.62131,61.3221225 1091.98361,54.9763304 1091.98361,47.3720559 M1083.67785,42.3979252 L1081.64768,40.3593525 C1081.19137,39.9012311 1080.45138,39.9012311 1079.99508,40.3593525 L1076.43782,43.9307399 L1072.8809,40.3593525 C1072.42459,39.9012311 1071.68461,39.9012311 1071.2283,40.3593525 L1069.19779,42.3979252 C1068.74148,42.8560466 1068.74148,43.5989735 1069.19779,44.0570949 L1072.75505,47.6281444 L1069.19779,51.1995317 C1068.74148,51.6576531 1068.74148,52.4005801 1069.19779,52.8587015 L1071.2283,54.8969362 C1071.68461,55.3553955 1072.42459,55.3553955 1072.88057,54.8972741 L1076.43782,51.3258867 L1079.99508,54.8969362 C1080.45138,55.3550576 1081.19137,55.3553955 1081.64768,54.8969362 L1083.67819,52.8587015 C1084.13449,52.4005801 1084.13449,51.6576531 1083.67785,51.1995317 L1080.12093,47.6281444 L1083.67819,44.0570949 C1084.13449,43.5986357 1084.13449,42.8560466 1083.67785,42.3979252" id="cancel"></path>
                    </g>
                </g>
            </g>
        </g>
    </g>
</svg>