<?xml version="1.0" encoding="UTF-8" standalone="no"?>
<svg width="97px" height="72px" viewBox="0 0 97 72" version="1.1" xmlns="http://www.w3.org/2000/svg" xmlns:xlink="http://www.w3.org/1999/xlink">
    <!-- Generator: Sketch 40.2 (33826) - http://www.bohemiancoding.com/sketch -->
    <title>devices</title>
    <desc>Created with Sketch.</desc>
    <defs></defs>
    <g id="Page-1" stroke="none" stroke-width="1" fill="none" fill-rule="evenodd">
        <g id="LandingPage_Desktop" transform="translate(-160.000000, -799.000000)" fill="#FFFFFF">
            <g id="CONTENT">
                <g transform="translate(98.000000, 401.000000)" id="features">
                    <g transform="translate(0.000000, 396.000000)">
                        <path d="M70.4700816,10.2953309 C70.4700816,8.08488086 72.0440798,6.50671841 74.2439459,6.50671841 L138.776178,6.50671841 C140.976044,6.50671841 142.756968,8.09169798 142.756968,10.3072608 L142.756968,25.4651192 L146.946382,25.4651192 L146.946382,10.2970352 C146.948078,5.87443086 143.165733,2.29544472 138.772785,2.29544472 L74.2439459,2.29544472 C69.8425176,2.29544472 66.2806682,5.76876555 66.2806682,10.2953309 L66.2806682,39.1385505 L70.4700816,39.1385505 L70.4700816,10.2953309 Z M124.949417,59.1399702 L84.0899155,59.1399702 L84.0899155,63.3495396 L103.995566,63.3495396 L103.995566,67.559109 L94.9857826,67.559109 L94.9857826,71.7686784 L116.774125,71.7686784 L116.774125,67.559109 L108.184979,67.559109 L108.184979,63.3495396 L124.947721,63.3495396 L124.947721,59.1399702 L124.949417,59.1399702 Z M158.471509,29.768424 C158.471509,27.9789309 157.004366,26.5064338 155.223441,26.5064338 L129.240598,26.5064338 C127.459673,26.5064338 125.994226,27.9806352 125.994226,29.7701283 L125.994226,70.6216986 C125.994226,72.4111916 127.461369,73.8888016 129.242294,73.8888016 L155.226834,73.8888016 C157.007758,73.8888016 158.483382,72.4163045 158.483382,70.6268114 L158.483382,29.768424 L158.471509,29.768424 Z M142.338027,71.8743437 C142.114832,71.8775911 141.89983,71.789933 141.74199,71.631334 C141.584151,71.4727351 141.496912,71.256699 141.500144,71.0324298 C141.500144,70.6114729 141.813926,70.190516 142.338027,70.190516 C142.756968,70.190516 143.17591,70.5075119 143.17591,71.0324298 C143.17591,71.4533868 142.756968,71.8743437 142.338027,71.8743437 L142.338027,71.8743437 Z M129.137134,67.559109 L129.137134,30.7160032 L155.002946,30.7160032 L155.002946,67.559109 L129.138831,67.559109 L129.137134,67.559109 Z M83.0383218,42.1926187 C83.0383218,41.0337089 82.0952798,40.1900908 81.0470784,40.1900908 L64.079106,40.1900908 C63.0342968,40.1900908 62.0912548,41.1359657 62.0912548,42.1926187 L62.0912548,71.8743437 C62.0912548,72.9275882 63.0342968,73.8751674 64.0824982,73.8751674 L81.0538628,73.8751674 C82.2072236,73.8751674 83.0434102,72.9275882 83.0434102,71.8743437 L83.0434102,42.1926187 L83.0383218,42.1926187 Z M70.2631551,72.0856743 L70.2631551,71.2437604 L74.4525685,71.2437604 L74.4525685,72.0856743 L70.2631551,72.0856743 Z M80.9487035,68.6123535 L64.1859615,68.6123535 L64.1859615,43.34812 L80.9487035,43.34812 L80.9487035,68.6123535 Z" id="devices"></path>
                    </g>
                </g>
            </g>
        </g>
    </g>
</svg>