<?xml version="1.0" encoding="UTF-8" standalone="no"?>
<svg width="135px" height="34px" viewBox="0 0 135 34" version="1.1" xmlns="http://www.w3.org/2000/svg" xmlns:xlink="http://www.w3.org/1999/xlink" xmlns:sketch="http://www.bohemiancoding.com/sketch/ns">
    <!-- Generator: Sketch 3.3.3 (12081) - http://www.bohemiancoding.com/sketch -->
    <title>logo</title>
    <desc>Created with Sketch.</desc>
    <defs></defs>
    <g id="Page-1" stroke="none" stroke-width="1" fill="none" fill-rule="evenodd" sketch:type="MSPage">
        <g id="Landing-Page" sketch:type="MSArtboardGroup" transform="translate(-127.000000, -27.000000)">
            <g id="Header" sketch:type="MSLayerGroup" transform="translate(-2.000000, -2.000000)">
                <g id="logo" transform="translate(129.000000, 29.000000)" sketch:type="MSShapeGroup">
                    <path d="M23.889531,1.60210526 L7.9839489,1.60210526 C3.64938287,1.60210526 0.089850583,5.06392105 0.089850583,9.44655263 L0.089850583,25.1476053 C0.089850583,29.5302368 3.64938287,33.4746053 7.9839489,33.4746053 L23.889531,33.4746053 C28.2226478,33.4746053 31.6401582,29.5302368 31.6401582,25.1476053 L31.6401582,9.44655263 C31.6401582,5.06392105 28.2226478,1.60210526 23.889531,1.60210526" id="Fill-1" fill="#CF232A"></path>
                    <path d="M44.1653295,1.88318421 C43.220739,1.88318421 42.4002003,2.22476316 41.7300888,2.89286842 C41.0599774,3.56647368 40.7176756,4.38278947 40.7176756,5.32444737 C40.7176756,6.26842105 41.0599774,7.09023684 41.7300888,7.76239474 C42.3990409,8.42644737 43.220739,8.76571053 44.1653295,8.76571053 C45.1099199,8.76571053 45.9345164,8.42644737 46.602599,7.76239474 C47.2669136,7.09023684 47.6112442,6.26842105 47.6112442,5.32444737 C47.6112442,4.38278947 47.2669136,3.56647368 46.602599,2.89286842 C45.9281399,2.22476316 45.1099199,1.88318421 44.1653295,1.88318421" id="Fill-2" fill="#FFFFFF"></path>
                    <path d="M38.2528713,15.4791842 L41.0486736,15.4791842 L41.0486736,33.0861316 L47.18257,33.0861316 L47.18257,10.3233684 L38.2528713,10.3233684 L38.2528713,15.4791842" id="Fill-3" fill="#FFFFFF"></path>
                    <path d="M67.8876224,26.0779737 L67.3890966,26.5072632 C66.0503229,27.6645789 64.477358,28.2536579 62.7270107,28.2536579 C58.659098,28.2536579 56.6829649,26.1758158 56.6829649,21.8945 C56.6829649,19.7665789 57.206417,18.0870526 58.239119,16.9048421 C59.2738499,15.7249474 60.6456654,15.1515 62.4412279,15.1515 C64.31012,15.1515 65.8103349,15.6774737 66.9068018,16.7039474 L67.3615617,17.1349737 L70.0640354,12.4133684 L69.7199946,12.1499474 C67.7705268,10.6678421 65.4460053,9.91897368 62.8049778,9.91897368 C59.0092254,9.91897368 55.9601024,11.0311316 53.7460102,13.2348947 C51.5301789,15.4346053 50.4018294,18.347 50.4018294,21.8945 C50.4018294,25.4993158 51.4365603,28.3613421 53.4686327,30.4067632 C55.5033137,32.4539211 58.3028839,33.4890789 61.7925646,33.4890789 C63.3235026,33.4890789 64.6761887,33.3637368 65.8143927,33.1127632 C66.9685379,32.8577368 68.3255715,32.251 69.8454956,31.3000789 L70.2199696,31.0687895 L67.8876224,26.0779737" id="Fill-4" fill="#FFFFFF"></path>
                    <path d="M104.481736,1.88318421 C103.538015,1.88318421 102.718925,2.22476316 102.045046,2.89286842 C101.374645,3.56647368 101.039009,4.38278947 101.039009,5.32647368 C101.039009,6.26842105 101.374645,7.09023684 102.045046,7.76239474 C102.718925,8.42644737 103.534247,8.76571053 104.481736,8.76571053 C105.426616,8.76571053 106.246865,8.42644737 106.921324,7.76239474 C107.585639,7.09023684 107.923303,6.26842105 107.923303,5.32647368 C107.923303,4.38278947 107.585639,3.56647368 106.921324,2.89286842 C106.246865,2.22476316 105.426616,1.88318421 104.481736,1.88318421 L104.481736,1.88318421 Z M77.2932394,3.88952632 C75.7307088,5.44863158 74.8437966,7.60752632 74.6417777,10.3233684 L71.4164316,10.3233684 L71.4164316,15.498 L74.5936641,15.498 L74.5936641,33.0861316 L80.666694,33.0861316 L80.666694,15.498 L85.1053128,15.498 L85.1053128,10.3233684 L80.6040885,10.3233684 C80.6843743,9.21786842 81.0530515,8.33728947 81.7225833,7.65268421 C82.4790672,6.87023684 83.475829,6.49131579 84.754026,6.49131579 C85.0705319,6.49131579 85.6748496,6.53444737 85.6748496,6.53444737 L85.6826753,1.49152632 C85.097777,1.42784211 84.3775231,1.39744737 83.799581,1.39744737 C81.1405834,1.39744737 78.9435917,2.23836842 77.2932394,3.88952632 L77.2932394,3.88952632 Z M94.6544009,25.9613158 L94.6544009,0.8625 L88.5515174,2.17989474 L88.5755742,28.1992368 C88.5755742,32.5726053 90.7259015,33.4890789 92.5313186,33.4890789 C94.6167216,33.4890789 96.1230232,32.6481579 96.9986316,30.9903421 L97.2716614,30.4750789 L96.7148777,30.2941579 C95.332338,29.8489474 94.6544009,28.4279211 94.6544009,25.9613158 L94.6544009,25.9613158 Z M98.574205,15.4791842 L101.359863,15.4791842 L101.359863,33.0861316 L107.503614,33.0861316 L107.503614,10.3233684 L98.574205,10.3233684 L98.574205,15.4791842 L98.574205,15.4791842 Z M124.592325,21.4432105 L133.344062,10.3233684 L126.287313,10.3233684 L121.4206,16.6327368 L117.053282,10.3233684 L109.988417,10.3233684 L118.033523,21.4432105 L109.295988,33.0861316 L116.566929,33.0861316 L121.359443,26.3165 L126.697727,33.0861316 L134.106053,33.0861316 L134.106053,33.0380789 L124.592325,21.4432105 L124.592325,21.4432105 Z" id="Fill-5" fill="#CF232A"></path>
                    <path d="M9.1050523,8.48521053 L9.1050523,26.2270526 L24.4897908,17.3558421 L9.1050523,8.48521053" id="Fill-6" fill="#FFFFFF"></path>
                </g>
            </g>
        </g>
    </g>
</svg>