<?xml version="1.0" encoding="UTF-8" standalone="no"?>
<svg width="95px" height="74px" viewBox="0 0 95 74" version="1.1" xmlns="http://www.w3.org/2000/svg" xmlns:xlink="http://www.w3.org/1999/xlink">
    <!-- Generator: Sketch 40.2 (33826) - http://www.bohemiancoding.com/sketch -->
    <title>movies</title>
    <desc>Created with Sketch.</desc>
    <defs></defs>
    <g id="Page-1" stroke="none" stroke-width="1" fill="none" fill-rule="evenodd">
        <g id="LandingPage_Desktop" transform="translate(-476.000000, -799.000000)" fill="#FFFFFF">
            <g id="CONTENT">
                <g transform="translate(98.000000, 401.000000)" id="features">
                    <g transform="translate(0.000000, 396.000000)">
                        <path d="M463.869138,75.2840018 L386.176185,75.2840018 C381.665848,75.2840018 378,71.639087 378,67.1417635 L378,10.1422383 C378,5.64491483 381.66201,2 386.176185,2 L463.869138,2 C468.379475,2 472.045323,5.64491483 472.045323,10.1422383 L472.045323,67.1417635 C472.045323,71.6352299 468.383314,75.2840018 463.869138,75.2840018 Z M400.486429,6.06919062 L386.176185,6.06919062 C383.921017,6.06919062 382.088093,7.89550509 382.088093,10.1422383 L382.088093,14.2114289 L400.488348,14.2114289 L400.488348,6.07304768 L400.486429,6.06919062 Z M422.976696,6.06919062 L404.576441,6.06919062 L404.576441,14.2133575 L422.976696,14.2133575 L422.976696,6.06919062 Z M445.465044,6.06919062 L427.078224,6.06919062 L427.078224,14.2133575 L445.484237,14.2133575 L445.484237,6.06919062 L445.465044,6.06919062 Z M467.95915,10.1441668 C467.954072,9.05983185 467.520507,8.02193682 466.753839,7.25881294 C465.98717,6.49568907 464.9502,6.06984935 463.871058,6.0749762 L449.57233,6.0749762 L449.57233,14.2133575 L467.978343,14.2133575 L467.978343,10.1441668 L467.95915,10.1441668 Z M467.95915,18.2864051 L382.088093,18.2864051 L382.088093,59.0014537 L467.957231,59.0014537 L467.957231,18.2844766 L467.95915,18.2864051 Z M467.95915,63.0725728 L449.57233,63.0725728 L449.57233,71.2148112 L445.484237,71.2148112 L445.484237,63.0706443 L427.078224,63.0706443 L427.078224,71.2128826 L422.990131,71.2128826 L422.990131,63.0552161 L404.584118,63.0552161 L404.584118,71.1935974 L400.496025,71.1935974 L400.496025,63.0552161 L382.088093,63.0552161 L382.088093,67.1244067 C382.088093,69.3711399 383.921017,71.1935974 386.176185,71.1935974 L463.869138,71.1935974 C466.124307,71.1935974 467.957231,69.3692114 467.957231,67.1244067 L467.957231,63.0552161 L467.95915,63.0725728 Z M420.168771,50.3790123 C419.813447,50.6794124 419.366315,50.8482343 418.902039,50.8572869 C417.780683,50.8594253 416.869038,49.949432 416.86375,48.8226916 L416.86375,28.4593817 C416.869039,27.3311313 417.783025,26.4205163 418.905877,26.4247864 C419.341556,26.4247864 419.723496,26.5906396 420.057453,26.8239913 L435.945354,36.7404739 C436.732264,37.0201102 437.308052,37.7548788 437.308052,38.6381438 C437.308052,39.2996284 436.974095,39.8608295 436.482756,40.2311066 L420.180287,50.3751553 L420.168771,50.3790123 Z" id="movies"></path>
                    </g>
                </g>
            </g>
        </g>
    </g>
</svg>