<?xml version="1.0" encoding="UTF-8" standalone="no"?>
<svg width="117px" height="74px" viewBox="0 0 117 74" version="1.1" xmlns="http://www.w3.org/2000/svg" xmlns:xlink="http://www.w3.org/1999/xlink">
    <!-- Generator: Sketch 40.2 (33826) - http://www.bohemiancoding.com/sketch -->
    <title>multilanguage</title>
    <desc>Created with Sketch.</desc>
    <defs>
        <path d="M48.3891979,35.9744247 L54.4656773,35.9744247 C56.5768989,35.9744247 59.6612016,34.9561627 61.390484,33.6794783 L73.4743484,24.7369015 C75.1882765,23.4640741 76.5759248,24.1390584 76.5759248,26.2797226 L76.5759248,63.6931341 C76.5759248,65.8145131 75.2017115,66.5280678 73.4743484,65.2359551 L61.390484,56.2933784 C59.676556,55.0244081 56.5500288,53.998432 54.4656773,53.998432 L48.3911172,53.998432 C46.2798956,53.998432 44.5717255,52.2666154 44.5717255,50.1259511 L44.5717255,39.8276203 C44.5698062,37.7043128 46.3067657,35.9744247 48.3891979,35.9744247 Z M113.155717,44.9941424 C113.155717,54.6367743 109.244199,63.8744155 102.296361,70.6493286 L97.7092525,65.8550121 C103.247812,60.3513489 106.34121,52.8344569 106.288489,45.0076421 C106.345358,37.1754878 103.25164,29.6522531 97.7092525,24.1448439 L102.290603,19.3428133 C109.238441,26.1215835 113.144201,35.3611533 113.146121,44.999928 L113.155717,44.9941424 Z M91.1510307,59.3751635 L86.2952211,54.580847 C88.8561189,52.0559483 90.2971451,48.601144 90.293107,44.996071 C90.2966396,41.3907169 88.8549047,37.9358721 86.2933018,35.411295 L91.1683043,30.6169784 C95.012595,34.4036689 97.1766551,39.5868087 97.1718507,44.996071 C97.1761497,50.4056145 95.0113808,55.5887948 91.166385,59.3751635 L91.1510307,59.3751635 Z" id="path-1"></path>
    </defs>
    <g id="Page-1" stroke="none" stroke-width="1" fill="none" fill-rule="evenodd">
        <g id="LandingPage_Desktop" transform="translate(-790.000000, -797.000000)">
            <g id="CONTENT">
                <g transform="translate(98.000000, 401.000000)" id="features">
                    <g transform="translate(0.000000, 396.000000)">
                        <g id="multilanguage" transform="translate(694.956705, 3.200000)">
                            <path d="M16.1508448,62.5958026 C15.6652639,62.5958026 15.521317,62.264096 15.521317,61.7163945 L15.521317,48.6911275 C15.521317,47.7654348 14.9186592,47.0364519 14.1067985,47.0364519 L7.7443445,47.0306663 C2.01525693,47.0325948 0,44.1783758 0,41.8448589 L0,5.53456455 C0,2.94069659 1.93080807,0.34682863 7.77889176,0.34682863 L54.233443,0.34682863 C59.8761624,0.34682863 61.9489981,2.85969848 61.9489981,5.53456455 C61.9489981,8.20750208 62.1946675,30.1425609 62.1946675,32.6535023 C62.1946675,33.4576977 61.2676493,33.8106181 61.2676493,33.8106181 C59.5709949,35.0757314 56.4751764,36.1017074 54.3390041,36.1017074 L48.4659696,36.1017074 C46.3355551,36.1017074 44.608192,37.8412382 44.608192,39.9433319 L44.608192,47.0306663 C44.608192,47.0306663 35.4781185,47.1078073 34.2823994,48.4770611 C34.2823994,48.4770611 16.3216619,62.5745888 16.1508448,62.5745888 L16.1508448,62.5958026 Z" id="Shape" stroke="#FFFFFF" stroke-width="5.2488"></path>
                            <path d="M44.9114402,27.6894754 C46.0361929,27.7176132 47.0877012,27.1307619 47.658317,26.1564316 C48.2289328,25.1821012 48.2289328,23.973495 47.658317,22.9991647 C47.0877012,22.0248344 46.0361929,21.437983 44.9114402,21.4661208 C43.2006069,21.4661208 41.8137024,22.8596979 41.8137024,24.5787624 C41.8137024,26.2978268 43.2006069,27.6914039 44.9114402,27.6914039 L44.9114402,27.6894754 Z" id="Shape" stroke="#FFFFFF" stroke-width="5.2488"></path>
                            <ellipse id="Oval" stroke="#FFFFFF" stroke-width="5.2488" cx="30.9735394" cy="24.5787624" rx="3.0977378" ry="3.11264155"></ellipse>
                            <ellipse id="Oval" stroke="#FFFFFF" stroke-width="5.2488" cx="17.0356386" cy="24.5787624" rx="3.0977378" ry="3.11264155"></ellipse>
                            <g id="Shape">
                                <use fill="#D8D8D8" xlink:href="#path-1"></use>
                                <use fill="#FFFFFF" xlink:href="#path-1"></use>
                            </g>
                        </g>
                    </g>
                </g>
            </g>
        </g>
    </g>
</svg>